<svg width="46" height="46" viewBox="0 0 46 46" fill="none" xmlns="http://www.w3.org/2000/svg">
<path d="M40.3611 15.6941L29.0761 14.054L24.0314 3.82687C23.8936 3.54686 23.6669 3.32018 23.3869 3.1824C22.6847 2.83571 21.8313 3.12462 21.4802 3.82687L16.4355 14.054L5.15047 15.6941C4.83935 15.7386 4.55489 15.8852 4.3371 16.1075C4.07381 16.3781 3.92872 16.7422 3.93372 17.1197C3.93872 17.4972 4.0934 17.8574 4.36377 18.1209L12.5286 26.0813L10.5996 37.3218C10.5544 37.5833 10.5833 37.8522 10.6832 38.0981C10.783 38.344 10.9497 38.557 11.1644 38.7129C11.3791 38.8689 11.6332 38.9615 11.8979 38.9804C12.1626 38.9993 12.4273 38.9436 12.662 38.8197L22.7558 33.5128L32.8496 38.8197C33.1252 38.9664 33.4452 39.0153 33.7519 38.9619C34.5252 38.8286 35.0453 38.0952 34.9119 37.3218L32.9829 26.0813L41.1478 18.1209C41.37 17.9031 41.5167 17.6187 41.5611 17.3075C41.6811 16.5297 41.1389 15.8097 40.3611 15.6941Z" fill="#FFC700"/>
</svg>
